<mxfile host="65bd71144e" pages="3">
    <diagram id="BTxV1ixRN_3EPDGLnBpP" name="Phần mềm">
        <mxGraphModel dx="852" dy="473" grid="0" gridSize="5" guides="1" tooltips="1" connect="1" arrows="1" fold="1" page="0" pageScale="1" pageWidth="1169" pageHeight="827" math="0" shadow="0">
            <root>
                <mxCell id="0"/>
                <mxCell id="1" parent="0"/>
                <UserObject label="Phần mềm chuẩn đoán hỏng hóc" link="data:page/id,BdGshf8CLnpfRvDjtk_e" id="-1h-iYOdTSnXvgOW02yG-11">
                    <mxCell style="swimlane;fillColor=default;movable=0;resizable=0;rotatable=0;deletable=0;editable=0;connectable=0;" parent="1" vertex="1">
                        <mxGeometry x="380" y="317" width="335" height="280" as="geometry">
                            <mxRectangle x="360" y="310" width="300" height="30" as="alternateBounds"/>
                        </mxGeometry>
                    </mxCell>
                </UserObject>
                <mxCell id="-1h-iYOdTSnXvgOW02yG-12" value="QMessage (thông báo !!!)" style="rounded=1;whiteSpace=wrap;html=1;fillColor=default;movable=0;resizable=0;rotatable=0;deletable=0;editable=0;connectable=0;" parent="-1h-iYOdTSnXvgOW02yG-11" vertex="1">
                    <mxGeometry x="38" y="220" width="250" height="40" as="geometry"/>
                </mxCell>
                <mxCell id="-1h-iYOdTSnXvgOW02yG-13" value="Chọn tập tin" style="rounded=1;whiteSpace=wrap;html=1;fillColor=default;movable=0;resizable=0;rotatable=0;deletable=0;editable=0;connectable=0;" parent="-1h-iYOdTSnXvgOW02yG-11" vertex="1">
                    <mxGeometry x="43" y="65" width="92" height="30" as="geometry"/>
                </mxCell>
                <mxCell id="-1h-iYOdTSnXvgOW02yG-14" value="RUN" style="rounded=1;whiteSpace=wrap;html=1;fillColor=default;movable=0;resizable=0;rotatable=0;deletable=0;editable=0;connectable=0;" parent="-1h-iYOdTSnXvgOW02yG-11" vertex="1">
                    <mxGeometry x="43" y="115" width="67" height="25" as="geometry"/>
                </mxCell>
                <mxCell id="-1h-iYOdTSnXvgOW02yG-15" value="LOAD" style="rounded=1;whiteSpace=wrap;html=1;fillColor=default;movable=0;resizable=0;rotatable=0;deletable=0;editable=0;connectable=0;" parent="-1h-iYOdTSnXvgOW02yG-11" vertex="1">
                    <mxGeometry x="43" y="165" width="77" height="27.5" as="geometry"/>
                </mxCell>
                <mxCell id="nDZbWefeKkMk9XtlrTkl-10" value="Loading..." style="html=1;shadow=0;dashed=0;shape=mxgraph.bootstrap.rrect;rSize=5;strokeColor=none;html=1;whiteSpace=wrap;fillColor=#3333FF;fontColor=default;align=right;spacing=10;labelBackgroundColor=none;movable=0;resizable=0;rotatable=0;deletable=0;editable=0;connectable=0;" parent="-1h-iYOdTSnXvgOW02yG-11" vertex="1">
                    <mxGeometry x="180" y="125" width="110" height="30" as="geometry"/>
                </mxCell>
                <mxCell id="nDZbWefeKkMk9XtlrTkl-11" value="" style="html=1;shadow=0;dashed=0;shape=mxgraph.basic.arc;startAngle=0.25;endAngle=1;strokeWidth=4;strokeColor=#ffffff;labelBackgroundColor=none;fontColor=#1A1A1A;fillColor=none;movable=0;resizable=0;rotatable=0;deletable=0;editable=0;connectable=0;" parent="nDZbWefeKkMk9XtlrTkl-10" vertex="1">
                    <mxGeometry y="0.5" width="20" height="20" relative="1" as="geometry">
                        <mxPoint x="15" y="-10" as="offset"/>
                    </mxGeometry>
                </mxCell>
                <mxCell id="nDZbWefeKkMk9XtlrTkl-12" value="" style="html=1;shadow=0;dashed=0;shape=mxgraph.bootstrap.rrect;rSize=5;strokeColor=none;fillColor=#f6f6f6;whiteSpace=wrap;labelBackgroundColor=none;fontColor=#33FF33;movable=0;resizable=0;rotatable=0;deletable=0;editable=0;connectable=0;" parent="-1h-iYOdTSnXvgOW02yG-11" vertex="1">
                    <mxGeometry x="175" y="170" width="135" height="10" as="geometry"/>
                </mxCell>
                <mxCell id="nDZbWefeKkMk9XtlrTkl-13" value="" style="html=1;shadow=0;dashed=0;shape=mxgraph.bootstrap.leftButtonStriped;fillColor=#0085FC;fontColor=#FFFFFF;whiteSpace=wrap;labelBackgroundColor=none;movable=0;resizable=0;rotatable=0;deletable=0;editable=0;connectable=0;" parent="nDZbWefeKkMk9XtlrTkl-12" vertex="1">
                    <mxGeometry width="84.375" height="10" as="geometry"/>
                </mxCell>
                <mxCell id="f6dVeozF8TZGOCk1TX9E-1" value="CHECK" style="rounded=1;whiteSpace=wrap;html=1;movable=0;resizable=0;rotatable=0;deletable=0;editable=0;connectable=0;" parent="-1h-iYOdTSnXvgOW02yG-11" vertex="1">
                    <mxGeometry x="188" y="64" width="68" height="34" as="geometry"/>
                </mxCell>
            </root>
        </mxGraphModel>
    </diagram>
    <diagram id="mUBeiTaphNVqQiXJcpa_" name="kết nối">
        <mxGraphModel dx="1022" dy="568" grid="0" gridSize="10" guides="1" tooltips="1" connect="1" arrows="1" fold="1" page="1" pageScale="1" pageWidth="827" pageHeight="1169" math="0" shadow="0">
            <root>
                <mxCell id="iajal5mOI3alccCrJs5Q-0"/>
                <mxCell id="iajal5mOI3alccCrJs5Q-1" parent="iajal5mOI3alccCrJs5Q-0"/>
                <UserObject label="Kết nối " id="iajal5mOI3alccCrJs5Q-2">
                    <mxCell style="swimlane;fillColor=#000000;movable=0;resizable=0;rotatable=0;deletable=0;editable=0;connectable=0;" parent="iajal5mOI3alccCrJs5Q-1" vertex="1">
                        <mxGeometry x="240" y="120" width="335" height="280" as="geometry">
                            <mxRectangle x="240" y="120" width="300" height="30" as="alternateBounds"/>
                        </mxGeometry>
                    </mxCell>
                </UserObject>
                <mxCell id="iajal5mOI3alccCrJs5Q-3" value="COM 3" style="rounded=1;whiteSpace=wrap;html=1;fillColor=default;movable=0;resizable=0;rotatable=0;deletable=0;editable=0;connectable=0;" parent="iajal5mOI3alccCrJs5Q-2" vertex="1">
                    <mxGeometry x="198" y="45" width="92" height="30" as="geometry"/>
                </mxCell>
                <mxCell id="iajal5mOI3alccCrJs5Q-4" value="9600" style="rounded=1;whiteSpace=wrap;html=1;fillColor=default;movable=0;resizable=0;rotatable=0;deletable=0;editable=0;connectable=0;" parent="iajal5mOI3alccCrJs5Q-2" vertex="1">
                    <mxGeometry x="199.25" y="90" width="89.5" height="30" as="geometry"/>
                </mxCell>
                <mxCell id="iajal5mOI3alccCrJs5Q-5" value="1" style="rounded=1;whiteSpace=wrap;html=1;fillColor=default;movable=0;resizable=0;rotatable=0;deletable=0;editable=0;connectable=0;" parent="iajal5mOI3alccCrJs5Q-2" vertex="1">
                    <mxGeometry x="200.5" y="180" width="89.5" height="30" as="geometry"/>
                </mxCell>
                <mxCell id="iajal5mOI3alccCrJs5Q-6" value="1" style="rounded=1;whiteSpace=wrap;html=1;fillColor=default;movable=0;resizable=0;rotatable=0;deletable=0;editable=0;connectable=0;" parent="iajal5mOI3alccCrJs5Q-2" vertex="1">
                    <mxGeometry x="198" y="230" width="89.5" height="30" as="geometry"/>
                </mxCell>
                <mxCell id="iajal5mOI3alccCrJs5Q-7" value="8" style="rounded=1;whiteSpace=wrap;html=1;fillColor=default;movable=0;resizable=0;rotatable=0;deletable=0;editable=0;connectable=0;" parent="iajal5mOI3alccCrJs5Q-2" vertex="1">
                    <mxGeometry x="200.5" y="140" width="89.5" height="30" as="geometry"/>
                </mxCell>
                <mxCell id="iajal5mOI3alccCrJs5Q-8" value="&lt;font style=&quot;font-size: 14px&quot;&gt;Bit dừng&lt;/font&gt;" style="text;html=1;strokeColor=none;fillColor=none;align=center;verticalAlign=middle;whiteSpace=wrap;rounded=0;movable=0;resizable=0;rotatable=0;deletable=0;editable=0;connectable=0;" parent="iajal5mOI3alccCrJs5Q-2" vertex="1">
                    <mxGeometry x="30" y="180" width="130" height="30" as="geometry"/>
                </mxCell>
                <mxCell id="iajal5mOI3alccCrJs5Q-9" value="&lt;span style=&quot;font-size: 14px&quot;&gt;Tốc độ truyền&lt;/span&gt;" style="text;html=1;strokeColor=none;fillColor=none;align=center;verticalAlign=middle;whiteSpace=wrap;rounded=0;movable=0;resizable=0;rotatable=0;deletable=0;editable=0;connectable=0;" parent="iajal5mOI3alccCrJs5Q-2" vertex="1">
                    <mxGeometry x="30" y="90" width="130" height="30" as="geometry"/>
                </mxCell>
                <mxCell id="iajal5mOI3alccCrJs5Q-10" value="&lt;font style=&quot;font-size: 14px&quot;&gt;Bit data&lt;/font&gt;" style="text;html=1;strokeColor=none;fillColor=none;align=center;verticalAlign=middle;whiteSpace=wrap;rounded=0;movable=0;resizable=0;rotatable=0;deletable=0;editable=0;connectable=0;" parent="iajal5mOI3alccCrJs5Q-2" vertex="1">
                    <mxGeometry x="30" y="140" width="130" height="30" as="geometry"/>
                </mxCell>
                <mxCell id="iajal5mOI3alccCrJs5Q-11" value="&lt;font style=&quot;font-size: 14px&quot;&gt;Bit diều khiển&lt;/font&gt;" style="text;html=1;strokeColor=none;fillColor=none;align=center;verticalAlign=middle;whiteSpace=wrap;rounded=0;movable=0;resizable=0;rotatable=0;deletable=0;editable=0;connectable=0;" parent="iajal5mOI3alccCrJs5Q-2" vertex="1">
                    <mxGeometry x="30" y="230" width="130" height="30" as="geometry"/>
                </mxCell>
                <mxCell id="iajal5mOI3alccCrJs5Q-12" value="&lt;font style=&quot;font-size: 14px&quot;&gt;Cổng&lt;/font&gt;" style="text;html=1;strokeColor=none;fillColor=none;align=center;verticalAlign=middle;whiteSpace=wrap;rounded=0;movable=0;resizable=0;rotatable=0;deletable=0;editable=0;connectable=0;" parent="iajal5mOI3alccCrJs5Q-2" vertex="1">
                    <mxGeometry x="30" y="45" width="130" height="30" as="geometry"/>
                </mxCell>
            </root>
        </mxGraphModel>
    </diagram>
    <diagram id="BdGshf8CLnpfRvDjtk_e" name="QTCreator">
        <mxGraphModel dx="1022" dy="568" grid="0" gridSize="10" guides="1" tooltips="1" connect="1" arrows="1" fold="1" page="0" pageScale="1" pageWidth="1169" pageHeight="827" math="0" shadow="0">
            <root>
                <mxCell id="0"/>
                <mxCell id="1" parent="0"/>
                <mxCell id="nQ7zEuBnF4jtB6h1MrEf-1" value="" style="group;movable=0;resizable=0;rotatable=0;deletable=0;editable=0;connectable=0;" parent="1" vertex="1" connectable="0">
                    <mxGeometry x="180" y="170" width="810" height="561.0000000000001" as="geometry"/>
                </mxCell>
                <mxCell id="eWoBDVv4BoXZtbPuz7sB-2" value="Phần mềm&lt;br&gt;(software)" style="rounded=1;whiteSpace=wrap;html=1;fontSize=21;points=[[0,0,0,0,0],[0,0.25,0,0,0],[0,0.75,0,0,0],[0,1,0,0,0],[0.25,0,0,0,0],[0.25,1,0,0,0],[0.5,0,0,0,0],[0.5,1,0,0,0],[0.75,0,0,0,0],[0.75,1,0,0,0],[1,0,0,0,0],[1,0.2,0,0,0],[1,0.4,0,0,0],[1,0.65,0,0,0],[1,0.83,0,0,0],[1,1,0,0,0]];movable=0;resizable=0;rotatable=0;deletable=0;editable=0;connectable=0;" parent="nQ7zEuBnF4jtB6h1MrEf-1" vertex="1">
                    <mxGeometry y="170" width="175.5" height="117.34" as="geometry"/>
                </mxCell>
                <mxCell id="a54Z5pq8-XP9aETE1uuu-20" style="edgeStyle=orthogonalEdgeStyle;rounded=0;orthogonalLoop=1;jettySize=auto;html=1;exitX=0;exitY=0.5;exitDx=0;exitDy=0;entryX=1;entryY=0.4;entryDx=0;entryDy=0;entryPerimeter=0;movable=0;resizable=0;rotatable=0;deletable=0;editable=0;connectable=0;" parent="nQ7zEuBnF4jtB6h1MrEf-1" source="eWoBDVv4BoXZtbPuz7sB-3" target="eWoBDVv4BoXZtbPuz7sB-2" edge="1">
                    <mxGeometry relative="1" as="geometry"/>
                </mxCell>
                <mxCell id="eWoBDVv4BoXZtbPuz7sB-3" value="QSerialPort" style="rounded=1;whiteSpace=wrap;html=1;fontSize=21;movable=0;resizable=0;rotatable=0;deletable=0;editable=0;connectable=0;" parent="nQ7zEuBnF4jtB6h1MrEf-1" vertex="1">
                    <mxGeometry x="378" y="109.46341463414637" width="162" height="82.09756097560975" as="geometry"/>
                </mxCell>
                <mxCell id="a54Z5pq8-XP9aETE1uuu-21" style="edgeStyle=orthogonalEdgeStyle;rounded=0;orthogonalLoop=1;jettySize=auto;html=1;exitX=0;exitY=0.5;exitDx=0;exitDy=0;entryX=1;entryY=0.65;entryDx=0;entryDy=0;entryPerimeter=0;movable=0;resizable=0;rotatable=0;deletable=0;editable=0;connectable=0;" parent="nQ7zEuBnF4jtB6h1MrEf-1" source="eWoBDVv4BoXZtbPuz7sB-5" target="eWoBDVv4BoXZtbPuz7sB-2" edge="1">
                    <mxGeometry relative="1" as="geometry"/>
                </mxCell>
                <mxCell id="eWoBDVv4BoXZtbPuz7sB-5" value="QString" style="rounded=1;whiteSpace=wrap;html=1;fontSize=21;movable=0;resizable=0;rotatable=0;deletable=0;editable=0;connectable=0;" parent="nQ7zEuBnF4jtB6h1MrEf-1" vertex="1">
                    <mxGeometry x="378" y="224.39999999999998" width="162" height="82.09756097560975" as="geometry"/>
                </mxCell>
                <mxCell id="a54Z5pq8-XP9aETE1uuu-22" style="edgeStyle=orthogonalEdgeStyle;rounded=0;orthogonalLoop=1;jettySize=auto;html=1;entryX=1;entryY=0.83;entryDx=0;entryDy=0;entryPerimeter=0;movable=0;resizable=0;rotatable=0;deletable=0;editable=0;connectable=0;" parent="nQ7zEuBnF4jtB6h1MrEf-1" source="eWoBDVv4BoXZtbPuz7sB-7" target="eWoBDVv4BoXZtbPuz7sB-2" edge="1">
                    <mxGeometry relative="1" as="geometry">
                        <Array as="points">
                            <mxPoint x="240" y="383"/>
                            <mxPoint x="240" y="267"/>
                        </Array>
                    </mxGeometry>
                </mxCell>
                <mxCell id="eWoBDVv4BoXZtbPuz7sB-7" value="QFile" style="rounded=1;whiteSpace=wrap;html=1;fontSize=21;movable=0;resizable=0;rotatable=0;deletable=0;editable=0;connectable=0;" parent="nQ7zEuBnF4jtB6h1MrEf-1" vertex="1">
                    <mxGeometry x="378" y="342.07317073170725" width="162" height="82.09756097560975" as="geometry"/>
                </mxCell>
                <mxCell id="a54Z5pq8-XP9aETE1uuu-19" style="edgeStyle=orthogonalEdgeStyle;rounded=0;orthogonalLoop=1;jettySize=auto;html=1;exitX=0;exitY=0.5;exitDx=0;exitDy=0;entryX=1;entryY=0.2;entryDx=0;entryDy=0;entryPerimeter=0;movable=0;resizable=0;rotatable=0;deletable=0;editable=0;connectable=0;" parent="nQ7zEuBnF4jtB6h1MrEf-1" source="eWoBDVv4BoXZtbPuz7sB-9" target="eWoBDVv4BoXZtbPuz7sB-2" edge="1">
                    <mxGeometry relative="1" as="geometry">
                        <Array as="points">
                            <mxPoint x="240" y="41"/>
                            <mxPoint x="240" y="194"/>
                        </Array>
                    </mxGeometry>
                </mxCell>
                <mxCell id="eWoBDVv4BoXZtbPuz7sB-9" value="&lt;font style=&quot;font-size: 20px;&quot;&gt;Design Widgets&lt;/font&gt;" style="rounded=1;whiteSpace=wrap;html=1;fontSize=15;movable=0;resizable=0;rotatable=0;deletable=0;editable=0;connectable=0;" parent="nQ7zEuBnF4jtB6h1MrEf-1" vertex="1">
                    <mxGeometry x="364.5" width="189" height="82.09756097560975" as="geometry"/>
                </mxCell>
                <mxCell id="eWoBDVv4BoXZtbPuz7sB-11" value="&lt;font style=&quot;font-size: 20px;&quot;&gt;QFile&lt;/font&gt;" style="rounded=1;whiteSpace=wrap;html=1;fontSize=15;movable=0;resizable=0;rotatable=0;deletable=0;editable=0;connectable=0;" parent="nQ7zEuBnF4jtB6h1MrEf-1" vertex="1">
                    <mxGeometry x="648" y="342.07317073170725" width="162" height="82.09756097560975" as="geometry"/>
                </mxCell>
                <mxCell id="eWoBDVv4BoXZtbPuz7sB-12" value="" style="edgeStyle=orthogonalEdgeStyle;rounded=0;orthogonalLoop=1;jettySize=auto;html=1;fontSize=19;movable=0;resizable=0;rotatable=0;deletable=0;editable=0;connectable=0;" parent="nQ7zEuBnF4jtB6h1MrEf-1" source="eWoBDVv4BoXZtbPuz7sB-11" target="eWoBDVv4BoXZtbPuz7sB-7" edge="1">
                    <mxGeometry relative="1" as="geometry"/>
                </mxCell>
                <mxCell id="eWoBDVv4BoXZtbPuz7sB-13" value="&lt;font style=&quot;font-size: 19px;&quot;&gt;QFileDialog&lt;/font&gt;" style="rounded=1;whiteSpace=wrap;html=1;fontSize=15;movable=0;resizable=0;rotatable=0;deletable=0;editable=0;connectable=0;" parent="nQ7zEuBnF4jtB6h1MrEf-1" vertex="1">
                    <mxGeometry x="648" y="478.90243902439033" width="162" height="82.09756097560975" as="geometry"/>
                </mxCell>
                <mxCell id="eWoBDVv4BoXZtbPuz7sB-14" style="edgeStyle=orthogonalEdgeStyle;rounded=0;orthogonalLoop=1;jettySize=auto;html=1;exitX=0;exitY=0.5;exitDx=0;exitDy=0;entryX=1;entryY=0.75;entryDx=0;entryDy=0;fontSize=19;movable=0;resizable=0;rotatable=0;deletable=0;editable=0;connectable=0;" parent="nQ7zEuBnF4jtB6h1MrEf-1" source="eWoBDVv4BoXZtbPuz7sB-13" target="eWoBDVv4BoXZtbPuz7sB-7" edge="1">
                    <mxGeometry relative="1" as="geometry"/>
                </mxCell>
                <mxCell id="eWoBDVv4BoXZtbPuz7sB-15" value="&lt;font style=&quot;font-size: 19px;&quot;&gt;QTextStream&lt;/font&gt;" style="rounded=1;whiteSpace=wrap;html=1;fontSize=15;movable=0;resizable=0;rotatable=0;deletable=0;editable=0;connectable=0;" parent="nQ7zEuBnF4jtB6h1MrEf-1" vertex="1">
                    <mxGeometry x="648" y="164.1951219512195" width="162" height="82.09756097560975" as="geometry"/>
                </mxCell>
                <mxCell id="eWoBDVv4BoXZtbPuz7sB-16" style="edgeStyle=orthogonalEdgeStyle;rounded=0;orthogonalLoop=1;jettySize=auto;html=1;exitX=0;exitY=0.5;exitDx=0;exitDy=0;entryX=1;entryY=0.25;entryDx=0;entryDy=0;fontSize=19;movable=0;resizable=0;rotatable=0;deletable=0;editable=0;connectable=0;" parent="nQ7zEuBnF4jtB6h1MrEf-1" source="eWoBDVv4BoXZtbPuz7sB-15" target="eWoBDVv4BoXZtbPuz7sB-7" edge="1">
                    <mxGeometry relative="1" as="geometry"/>
                </mxCell>
                <mxCell id="eWoBDVv4BoXZtbPuz7sB-17" value="" style="edgeStyle=orthogonalEdgeStyle;rounded=0;orthogonalLoop=1;jettySize=auto;html=1;fontSize=18;movable=0;resizable=0;rotatable=0;deletable=0;editable=0;connectable=0;" parent="nQ7zEuBnF4jtB6h1MrEf-1" source="eWoBDVv4BoXZtbPuz7sB-18" target="eWoBDVv4BoXZtbPuz7sB-9" edge="1">
                    <mxGeometry relative="1" as="geometry"/>
                </mxCell>
                <mxCell id="eWoBDVv4BoXZtbPuz7sB-18" value="&lt;font style=&quot;font-size: 18px;&quot;&gt;QMessageBox&lt;/font&gt;" style="rounded=1;whiteSpace=wrap;html=1;movable=0;resizable=0;rotatable=0;deletable=0;editable=0;connectable=0;" parent="nQ7zEuBnF4jtB6h1MrEf-1" vertex="1">
                    <mxGeometry x="653.5" y="3.0200000000000102" width="151" height="76.05" as="geometry"/>
                </mxCell>
            </root>
        </mxGraphModel>
    </diagram>
</mxfile>